# xmcd
#
# Track frame offsets:
# 150
# 19835
# 39372
# 77650
# 98110
# 120197
# 139402
# 164560
# 185292
# 204655
# 230575
#
# Disc length: 3453 seconds
#
# Revision: 4
# Processed by: cddbd v1.4PL0 Copyright (c) Steve Scherf et al.
# Submitted via: Axialis_AX_CDPlayer 2.6
#
DISCID=8b0d7b0b
DTITLE=Various Artist - Smooth Jazz Plays Earth, Wind and Fire
DYEAR=1997
DGENRE=Rhythmic Soul
TTITLE0=Larry Coryell - Evil
TTITLE1=David Benoit witrh Russ Freeman - After The Love Has Gone
TTITLE2=Ramsey Lewis - Sun Goddess
TTITLE3=Mark Johnson - Devotion
TTITLE4=Tom Grant - Fantasy
TTITLE5=Henry Johnson - Shining Star
TTITLE6=Stanley Turrentine - Reasons
TTITLE7=Tuck And Patti - Getaway
TTITLE8=Carl Evans Jr. - Can't Hide Love
TTITLE9=Kim Pensyl - That's The Way Of The World
TTITLE10=John Tesh - September
EXTD=YEAR: 1997
EXTT0=
EXTT1=
EXTT2=
EXTT3=
EXTT4=
EXTT5=
EXTT6=
EXTT7=
EXTT8=
EXTT9=
EXTT10=
PLAYORDER=
